<mxfile host="app.diagrams.net" agent="Mozilla/5.0 (Macintosh; Intel Mac OS X 10_15_7) AppleWebKit/537.36 (KHTML, like Gecko) Chrome/140.0.0.0 Safari/537.36 Edg/140.0.0.0" version="28.2.1">
  <diagram name="第 1 页" id="l1ol9SQRyHzEonNVg9HZ">
    <mxGraphModel dx="426" dy="637" grid="1" gridSize="10" guides="1" tooltips="1" connect="1" arrows="1" fold="1" page="1" pageScale="1" pageWidth="827" pageHeight="1169" math="0" shadow="0">
      <root>
        <mxCell id="0" />
        <mxCell id="1" parent="0" />
        <mxCell id="3C1mUvQcVeZkOKbagMCH-2" value="" style="whiteSpace=wrap;html=1;shape=mxgraph.basic.roundRectCallout;dx=11.78;dy=11;size=4.89;boundedLbl=1;fillColor=#ffe6cc;strokeColor=light-dark(#ffb12b, #996500);shadow=1;" vertex="1" parent="1">
          <mxGeometry x="120" y="253" width="150" height="40" as="geometry" />
        </mxCell>
        <mxCell id="3C1mUvQcVeZkOKbagMCH-3" value="&lt;font face=&quot;Comic Sans MS&quot;&gt;User&lt;/font&gt;" style="text;html=1;align=center;verticalAlign=middle;whiteSpace=wrap;rounded=0;fontColor=light-dark(#ffb12b, #ededed);fontSize=10;shadow=0;textShadow=1;" vertex="1" parent="1">
          <mxGeometry x="70" y="246" width="60" height="30" as="geometry" />
        </mxCell>
        <mxCell id="3C1mUvQcVeZkOKbagMCH-6" value="Can you tell me about Albert Einstein&#39;s life and achievements?" style="text;align=center;verticalAlign=middle;rounded=0;fontFamily=Comic Sans MS;spacing=0;whiteSpace=wrap;fontSize=6;" vertex="1" parent="1">
          <mxGeometry x="125" y="253" width="140" height="26" as="geometry" />
        </mxCell>
        <mxCell id="3C1mUvQcVeZkOKbagMCH-8" value="" style="shape=image;verticalLabelPosition=bottom;labelBackgroundColor=default;verticalAlign=top;aspect=fixed;imageAspect=0;image=data:image/png,iVBORw0KGgoAAAANSUhEUgAAAHgAAAB4CAYAAAA5ZDbSAAAABGdBTUEAALGPC/xhBQAAACBjSFJNAAB6JgAAgIQAAPoAAACA6AAAdTAAAOpgAAA6mAAAF3CculE8AAAZL0lEQVR42uyYaWxVRRTHLUXQxE9uMTH4xUChMOfOPPalCztSNlkCRCgCQiiiIAIiAsoWAdkFZNMCBZGtc18VDVFDSIyJiQsoElQUTRAEASkQEEvf38O5j77chlb78qALd5JfZu7ruy+99zfnzJm5K2hBC1rQgha0oAUtaEELWtCCdkc25KskWKolhBsnBW+kmjRYdTdcup+pz7RkujPZsDSJmcvjRbBqJfcbYCnPQ23g65U8XszjedxP5uth3Gdx34r7FOZBuKoOPm4eTIbb1eCqZOYhWGrDjIRLC2BVPvdfM78zhcxVBoKVvmxs6Wu5t5D7E8wBuMrl/g24NIppx9cPw6rkwERCI5TugUuKGQmr3oarDsCKhIhIuSWoqHAPHkeYC3DVQSYXYTUaHygHnze5NzAUX6TWZh5nWCpZuHSSKWZw27FR4WGmQCFiCZe3U+T0Jjr102p6f/9cZ8yCoTq1C5n7WtVvWiuwV/56WhcutYarVvP4GCxdqzypMbFXdxGOrSV8OMPB4qc1xnfXyM4wGNjGoH8rU5wVMifap5r9GY1CqzNTTTbTMLORqRsYjUUsp2FqD6vyYOkMj1GJYkVqhOVylOIjljq9v0bflgYsEe1SQkhrGEL6dRp5ZETJTL2OKWaO83hXRmooO6OReTSjsUm6U9fXZCYEl3JZ8nnuUblyWSzL/WMjIW+8xrBMgw6NDdJS/CJZMIv2IZ/5Rcu4iAUf4vFUpt6dlo4fg6U5zHEGcCsbScUSscPbG5YjUeqTypGJ3s0MRncyeKWfxsJsDV5/Ma2vxjMdDXo2NdHv+kUzEY7mAxmpZjCn7jo1PR3XYfrApa+kEr7JmocC6eW6zM9s4gXbqQ46K1MiKD0qK8sYTOqlkf+SAy6scGEboWg3IWIFGRe+SziyirBzsoOJPQ26G+Ol8phosOCL/LtDanJKrscsg6sKS1eoxdyfzSMcWOog/LKD9WM1VozUWM6szfFe7peLHPy5mVBsCQgnUrRCcT7htYEabRvEIrZfS4NlIzQOLiNc3kFA2DfJfPcLYQ+usvHNEgeLhmk82cI/YTjlr6upcpsxnzG+YqYon/D9CsLKUVpSYzd9I80xKULJC+rqGKlelwzXPBEI/+y+IZoSIFrhk1mOCOkRMpg/VEu0XqvQZPJP2mv5hMNvEmYP0hLRA1ob7J3pHMIe1boGiVVJcNUTzOHSL+C39YSlI7SsayJURMZIF0p9Fv0eS5D17+gaQiQhadsTcvQtwpGVhL93lSe2YqKv7PRE/7wmOmFcOgpLfWGd5BpQJathcNVJxB5aHnLfHAdDM0RsiURPsqQxmfF9mntkscyOTUpPAm88qK2R/SlHs19G/ELKEJvI32W87WAOX9eupsUUJTOjYelc7EG9lLxriiPSRFY0Ktuz1BEdDFaN0vh0tiMz/tg6wq8MRxT2z3OwPkdjTBdPdnrsXkndG59zOOp8kqsB6iKsmsDcXd3k1oalHO7P+woZS9jNclmIL2r5NAjbJjo4kyfptqRi9lEge1SpVgumOXgqzV+8dGLpueNikXyLhHiEb4IbZ4VvWbKrXmTqVA+5BZQEl0bAUqHvQcNKquBezfzR92w3g++Wi9iYGPufx4eynk3po33rNU8ciX6EVWKlhmNF08VthJO5Xnb5YRXhx9Xe+NRGwpUdUuHHk+YvwVVjYZskVYfo7cacZOBHyZajXUqJEDkgOJEbT5Xq3XNuC+H1IVoOIPg35be5YvVesqsSIvbSdpJt0ubnHcwaJEsEr/tSG0ih17OpjCWjjM/Scla991VHCsii/Io8mzrNfa8qLldpuHSIgQ9PiOxvO0WLpcm9NU5tks/jr1KjKXvOYB09UDDY+oLjkxtvQfTXVsKe6Q4m9NDICknW8Z9Dl672G/qLRN4SyeT7YqHDe+j/LfoILLWoqtuhB5g9Zb9cBX5Q2WvumOTIea9fbvySz26RtV2EXHyvYtHrzwryP8pxZU5XI6JKnTFzb8pC/s74TsG6OQYzB2h8u0y2SOVLtsSofdw/UrXkhqkWXJoBq4qrxjYkvvt/WUuS4jspEeuTmt5QI62Bg7QUB5mNQ+hILdBZt0JnpyU6qObynXYNSP7uly2iZa//zjgtGQfhciVHmPmwqnZVWnc7M6eZBAhTJfzLvJXFRHVG4diHti99atK+mL41NeIM4A4uLBIRXBAQUYutRtRqq4a4VosFLdYVahUMFYMWUWkQWUQoSwFBRFAWRRbZZHVBFlkcloGvJyfDjDdyZ+4FB/ySkzHj3PX7z/adHyo62ATfGWOCRJZ9lPry+cMQ+40ZfzrNWYBdnlsQdDwA8dejkZmahnuZd3A3PRPp/yYjIjQMxw74wNNlNRaaW4CJnqQlWptC9ruaoS5EaagQbCNz+lDy7hd0MxmjJZWJjJpMnyZAzFTgpiVwaz4b/zt2Gv8f/UZH+ujJ5YKMiiKBZsyETGJisXaxCy4GBuNJSSlUb1QYHByEGAYGBtDW0oqcjCz47f0FS2db6zxa583cOVQFG0pRilx6xokfgvfuIRsYDbH8mWAD3P0JKA0CmlKB1odAexnYWh8Bz9KAsmDgnheQaMfHjJ5oBStqy6ZxEQWd15qSx9riwp9BaGpoZFLloq+3F4V5D3DgRy8O4bRgBCRvczDXdRA3RCOZLz3jR+NJrpKselTkJjmCSW0vB9Q9MIiBXqCjCnhyAUhZrj3PSIqzggAlVlq8S+6mFd/ifnYO1Go1Rouujk5cCbmIJbOs3iaZr/nrSsrJV3mhiZHcSDZrHDfGKYNHRq4JEDcLKPIDOmqAEXgIH9PVABT7A/Fz+JxMtrTQzGNHCpXkTYJCivLsVtRWVeM9ghdKctwtuFgt1JGsyckXt5sa6NsV4WSfjscgYSbZC7ley0SkLAUaEtkbR42BfuD5bSDNXULI1unhQZu0Kpi2mNrxnSca6xpgBHCYT41PxJLZOk+mwour6wJ/vfm4jb63GY8pUSB9yic3fRXQWoz3jo5q4M5GHcnioZlnyaRAaXdbUFjmYqqitBxGBBdh/1y6DDvlTE3hxfmYt/+wGBKtEOuNL5F9PJYEm9MFm2SH5f9cgfZSGAscsjPX8bXEvLcvUgm/NWaC0Gw/1RJJsfEGPbD5xUtujWIjIhEVfg1pCUl4WlmN/r4+SMWb7m747tzHi4quzRGE9lTjtp+pnoJL2UxmMZaqla88750CJNgCL3NgbHD1neTA1xzOex+dZu8daoe4jTm8ez96VD3i66azE9fDrmK9kxuLG0P52nbKdLhSXvX3PYL6p7WQivLHJXScvSZU864V3i5kYBLmjzjTCWNB7pdk+bJCc4w5UBlmsJjqaH+NjKQU/BVwBmeOnGDxoLKsXH41WxsNxM4YJlQrELLVDLrdkuacEwtz74uvl1evcGSfN5Op6WnZBAoXfe/puhqP8gslh2p6Pk2vzamC+/CKc7wIxUgupUX61Vi0Rm50oV7JBEeZANlbgb5O/au6uIQrWMpPJAkqWfajF8ArndoMFhkkQ60C8vZAGKoVvBtyi722cmbpcT/1qT09w3tvL31/ysdPQwSTOowx0XzPG5xXoa7mKaSguKCIhBArbZgm4x2Z6ijNjs13ZVc12XqjD/LJ/pblvXEzWaTQA85jJPExqZoXKfCQBSQUhAVfkOfJzXma9kmhHSSUB2nDM5/bxmQa51MRsBxpP9VCSK44yezJfxw+Kuk+u7u64bV+Mx8zVFF7kFS6z9mMhxM0ONEVXje07zOK7BNjEjyRrEyW92ZtAPq69PaIJ7wPsQeIvEgmeZmlDYoLiyAVLJrkbOd74HuJVfBmAFsTDcF0TidLW5IgyzAc+vv64eO1lxedfnKF9+lmswi11TWQgvMBZwRSJo8cNX8pYUtj1XObzdAbySQPEVxL9rUxCXYkU8lSqspDoA+NdfVwt1usLThEjF9EyOlAyEJ1BHR1gAKh20y1ejPnTZdVrB0PA66YPRyWc38slWAiinN1WmIypCDlZgL/fpiFzR7tYGaO/FOmb28N7qdncTcmwb/LCs83Z3Oo1IfHRQ/hOGOeoTDInkQCPhcoktFWAh5WcEWt4E305CGa/KvknE95VjRtOM+zo4Uni2C265evSs7DjjPffXYrMmvNTJlm5xx9oOsGAnHMY4Ixet/PyG7Lao2SFwNvnkEPOEQutbCmkGmY4BMHD0MWVK+AVGcutgZvKHkzO4U/7fkO7fxZNF/W19TC1dp+RATHXIuEFFSVV/BQw0p4DYFezTtUYgQEPyD73BgEm5A9l5V/M9YarJ7bWlo4VFLINPjiosIjIAvqXtCEikeM6ige5mOejmAc9/YVnRS9bmvHRtc1fF9yCF5IfXJuVjakoKaiEsvnUpSQRbCijWyGMQh2JuuTTvBkfrn8kg3gSkgoP5RImOZ2Zt2yFWiqb5A/kHjgDboXvqeT3ws9+OCOXejv7xdVrs4ePSkoggwY/3aDsztampshBZVlT7h4pOglh+ABMg9j5F9vIhiyCM7bDQyoYQiv29vx254D/GA6MYFbJCZiBVWmWanpI5s4FfhoCFbg7EZBDuY2RaVSQQQ85HezdWBZUWKBxYqXVOTn5GLRtDl0rByCuao+boTRoCIC0TIJzv6BRQcJYBUr/Hwoy4EO0+f+T8y1vjQdRuGiSIr+gv6BKJr6QRiYCF6Ksiy1C15QkDIQyQ+uFoRBiRD6wYxWSEhXqNDVxGWB6NBk9CFrIBRdMCFK3Wyuy4ZrQafDg3vnj7Hxe7d324GHfXL+2LNz3vM+5zkjlgTR5LSfNtHM9BtklDzB3JBNnyd+FnxIj0w5YTckuuP6A5XkWXTH1Z/tA49BQmHsTBZfRla8IGvqDfvgE/y9foIFRhhZqh2TLunhwkQtUeiX1Ejtu2eJJT8XvXK+5DNqloLRGSZzF4aKBoKH4buiUoMQOtDBzrx2UZxACX9qtdHxkjJUFwbIZIQrDIYVVzous6zpJZm42tmF40cQuwPQQbDhPWObyvN3O+ObDMHCrRGYp4zFyhLReMWqz8uAPacjRmi/4hi439ev54sHTfxGdw/kyKrCvWiO6vYdpott58jpmITcKRG4fzcdXdPE4Zn0EAx4meBcledvPuO39HDfbsQEKVMBL9dIwapciTVOMldgVCjO+5a6Ru4BfuoeEvxY9rHjY44+cwfsWVikEEaF8uF0TMB9qZFmdZdowwpjj8ozuJIRSshz9c5CGYtPd/Aca/Voq1nMYfFammOEopTGQGN3ofWMyF4QKkOwzfCPUa+yRDdrCZQ8h//4KO3x1886eFNYixYEf+GdoZrdMNqJLG5tOIn7eJoCN4L9eeieEyQYMKvM4I6EnZPDeURfn1Paw+2EVKqZCcPknk03tTNhTJVuX+tDCU51uOcXqLm6QWSv8IVJddFAr0qCLXjTRLN4qpEouJzG7A3AP43sjXZ1YPOvtkBkMbphHvzzkGCUUhkBv5+62y9F9pki7kq8ShJ8l54Z16si+FZSWwtDuZgqQXhIR8xZsQkR22GJTcfwlUmQzFch+KFTELju9fdaNNMjJhBftBpGoSzBtuwBxkYF5OZs4Dd8mDDBwpNVlFFPloAtsunYWYtSHSYZ4kc1jy6nxhwqyzVEnOtdPWjoQG5kHIjfFzGVo7OXzGCDnZGl4oq0iTGUDMGiVI9XEfneUqoC1tnJOvwvHZsNWB1pLdPuJGFtJb8YqhoTk7QXevbDR3TMfM5rdpSKd+F3RbBg3lYOCVW2RI8xtqhQsTYzRpVsDcI6e4zI6yLVATvuiwad5ndBMoxuJ0o0JAvH5NlTLVgki61Xx7fYWu89YDHkUNQCWtFO/MAaqkhwkDXxg7IE4/mdjK3r/rd39qFVlmEYP5ualh+FlRRGKmKU7nnOTkH5h6kZ5tcg/4hI0gqy1DVRS1EThUJyNovBkGlipa6ho+19NWetotRgikalGBaYmQbV/lCnTtvmuru42J7xctyXe87Ou7PngYtzzruzc+D8eL7u97mv28L8eyv0NT/UEmQOoefK7WU2/LXf3PftWDIaIdNnI2dak3dI4IwVtzMrsxcxXIkDdTj8d5UAb3T0CD2eoc8PCwoZ8UKvDRzYw+dz3kdWBRLV+d03CZg6DMADLQDWfaG9kNgSe5nJTfqNNwVuLjfprMiJ95he2nG4Qch/btWy+plMQDELngBowOIiDHeguBIuWJfH472FG/Ilf20uDw/Me3a2STK7Qdooj8Z+uiyKiJpx7OkEYPUt1N9GkKM3VGIRcDDSVTGVkDhs110i7Fag8gABQ5AnN4p8lRXILuykFQSP1RYtjtJUpXnIjsvy5w0GiBCDrwk1CLbRAwwQ6V/ZELBa6gRgT+2D+lkA/GAac2OsAg5ChnjElQukY++InN7J5DQMvdABPK/AtRKR47kiB+fgvY+b/7OT9R904TuezxU2XXRoukLYccCN4sA0gR1Nb02eq7pYHGfE0knAuhTqY2sfvMk+4CBoihn8EE9BZkIPQ49AMeG1MvN3KpH1GWpLNXscFkM0Bkf+EMGNMwapRnzN64REWyV5A/bD3gqazdzAS9MGYFWE3yvdFuD1UBe6r6uA2gYa7zdNGZc8o2BqiNcmaObuIpeYdkg4MEBrJFhA0RMre0oMmfqEyfm7YG6mfPZmlIamV0uYndCaG25n5+BCm6HKJbYh2u91/LFocHIEMPauisouANmBObVkWZQBBUCCkw7d6tCrDOy2P5vvbQaOw+gEeGWnlppdmt9bX2psGFv4XNuA9RqLgPVzUENIwdIG4Ys1UVk+M5O+l5N1kyW/EX80XOfwueCpGHvb0Tz6anXQfkm1It1OWZmD59q8XTgRqgkZXPYmnPxnJOjJjPjiGcEfLLAAMiZlGGppfFZdbM1FPvGAPVULZdnswRlQVYjgcnjcsShqzMQN0HYp6DmNsCEtCw/lRmnvYCCHETClqqFHbQK+Vzx9MhSA+aPQKR7bEBOU6IwMaJiQM+Hr/CfGMyOkgPUZaITV+oFQeSgA71ZyJI+e03G91gZoiHP5mS38rpABNqPLfmiA7cz+9eKFA3DxkmggbhxUsLZDswzA9vRm2gaf2mR6ctjm4I2JSF15Hkr+SnoPD86ZxVQ8HJqaMJk6ZxpDhPTDemlijGbkTxgH2bYhZ+P/zm01kMMB2KPmJ6oszvkQ9GAGErAdMqCaRah0rEFwAntUurDz8UKRZpkc7IdpW5Rlaka0Dnk1su0v7TRDYxh68GXx9PgEAFZ3iW/MV5IolnjlvheQzQ+BBRJzj1D3gb2cQAIyUS0GKn54P4qIFBdqrUFmjy9+nSbjIenB6iQ01D7gfSPTWPY1PHtg9khvBSNV3A/XlprhtL0BElZYmxpteTU+vrF0zx9m0ZV0wEVQ70RZKCGiperDAVkH4swdC1IEy/z4K6MYsgm5xZW1t5yZ9kkEbMzCX02kR9Yo6KxlYMkfDSBAbmnrxbn444WZYejB/4ino4kE3A/awy9LLch0mUPFlPgb/azJxIVbEgGbkekbaGCifSrni6//Sy3I5tgO9r+myrcRfKtMsY8k9+ClXWFEOlJ8fQqS1IPMFFNaPbw8KSbzJsdk8/xMqdoehm2SOgeN6Qorw3Ra+fhaUhQyDVuqi3nf2Jh1hyDQsb3LKrGIryYF6hKm3pwcUNJDlXvUVfG6rCoaAd8GlYmvxSmhgBFkIeAKvH9QVxfkeBqqcZASCBjCPe9aKVezklGUY5B46nPxHKgEAcYjq5wflKNqcLLqFc6Aqh2oxAGG/fFbySxIeQu02YGyDDho67Ai2VVHx0CnHCzbgI0IONmQF0D/OmCpC7i/eHqbW3ClJGAD+QHomIOWkoDN1mkGVOXA2QM8IVSAd2eki68WiucCIBZ78PKQ1fLXfaFc6LoD2DbghjIta2cRMPa+cb23YeJDsRdDhNdAvh3a6CC3Q7tVPc6VHULc+aIBbBT7CRoeQXOQu6VUA/TRzwX6HgDOwbHfMxNGx+rQa6/heSXgmrKyIYWsAFkXiK/rHMw4uNehrRArqMAnuhfgjgLY6QA8CY9DIt2hAfAA8dVq8fUlB9XArYHWQXdEUqGJr/sA9CvQ3z0erqerAPY12hCmUpNSHvWZLJ6qNIf2epRo4n1YPD0Fr3tFUrWJp4eKr/PEVxfE6zFwqwE3H7ov0hOa+KoPNF08nvOtS1XQLCbpq++gmXE1+HsGaD0YWgCdSMGz1r9AiwH37khPbvLl2DTx9XBolXgEje2D6q5gGxqtLt7G4ygpVWkR15ri2NE08ViAOgeqhK51n97Ke+FHoSXQMCnT6Y5o60P3nVCWeKpQfPUrVB9CsNeFGR5qS+McO0QqtOuxHWniZfQSX90PzYI2iae+hy4kbb721EXW7wVUPM7BtRG41tuRsgJbpUODocegbPH1B9B+8dVp6LLQiU9ZgGgKT13B69+hg40hxYXQWPEwunhuCE54Ez+aLr7uL74aBo2DZgPKUjy+i8dtUDlAHBAGVhTmR/0jF3EUnvOaqiRAei+r7dAGaBn0AjQe78Pij6FWBzRkQ3saAPVlHNxTgwQxX27J4DOCaxCe8xr/NoDvLctw86drrrnmmmuuueaaa6655pprrrnmWpjb/7STjGf27LyNAAAAAElFTkSuQmCC;fontColor=light-dark(#d79c00, #ededed);shadow=1;" vertex="1" parent="1">
          <mxGeometry x="83" y="269" width="34" height="34" as="geometry" />
        </mxCell>
        <mxCell id="3C1mUvQcVeZkOKbagMCH-9" value="" style="shape=image;verticalLabelPosition=bottom;labelBackgroundColor=none;verticalAlign=top;aspect=fixed;imageAspect=0;image=data:image/png,iVBORw0KGgoAAAANSUhEUgAAAHgAAAB4CAYAAAA5ZDbSAAAABGdBTUEAALGPC/xhBQAAACBjSFJNAAB6JgAAgIQAAPoAAACA6AAAdTAAAOpgAAA6mAAAF3CculE8AAAQDUlEQVR42uzXsWsUURAG8A14d7koKIiCBiuNROLOzCtS2FhpG4OFVoqdvYWIYKX+AdFG0dZSdsGAQmz8D0wZsDJyHoigEZwxBiZfIJBAwmUh75EQ3gc/pruB993tvitycnJycnJycnJycnJyouRz98bQmnwSB+icLXDHhC+Z0AMVfqZCjzGnTPhYriJuVPg4XDfhpyr0XIUfmvBlExpJU67QCQ00Y4F/mrBjugKmmvCsCV3MtcSJBp6Ejyr8zwK7gQqm0G8TfqXCp2L/ckew8IUJYRkBb0JuQq6BP8GZXM+uy71ggefXz3krYVehNyZ0NN5SoWkT/ruxaCsFFXpSeJH8feEVdeC01zTmVTmGmcLGZ2MXdJKXK9SC1xrYbRCh/xbobhEjK5MyZIFfgu9EA81jnkxXbNn2mqa8orew4DX1oA/fE+lDz7ELsLO8Bu0iUUx4HL41POsPGrgb4/E8DO/BG+jBeJJy6/IQ3IMlr8kxgdLbvKuiPyj4PrQSXWKvgIIPRm7CCzAa41vVhrpRwcJf4WyagmkafoHvrXIJbiYq+GqjgkFRMIzGenQ8giYFz2EeTlBuF2bB94dyDo4kuGCdh8VGBQd+B8OxCp6wQF8GLyU14VuJ3r3nYHEfFdz3qpyIXzC1TKjJfWdZA92J/T/4tgr92KZYV6FlE54xoVV2zKaljSAMwNl+Wfyg97YHKZUUShvpJaEevFV6aKHFi/iBeBQP3vTiQfAP+AH+ABHiSRQVFFHMrCBms3pwV1BBET8uUTZsMATU8UENGBVBcGJMXHh4Z2aXzLzvw5BhihSdmn0QzSLBMQioyJV6esFMlN+2a4kX40F499BH+Jf8+C8mmWHy0yv/BWuMN/O+ROHpuZSCbmaR4F3wKrzF+kFtR6lrIl3u9wPe9cF7lVdolRC/lCuhw6P4QXABhQ1mi2DWMwKFiq+Fi6ltbyIlGNlsotpk+bdXqu9IK8C9Irjdk4GHwlbCfhbIjbJ7qzJ0H90GKcEu/PTw5KbgQY8mh7/UyOGvWyAfiR3W0CiHtBcZEtx+TXDFkxRshiwtIuxCQ7c/GLpVZgjLB34IpAgL2x8Wq/6dqa4WZ7x+3h2rjrtj/2VcMS64zOWM1y3sTna2GmIlwDrS1gb+iG77oAw+kkvR4pyl5bXgsG69jujWZwrSAN0UZRrB64ztUbAoOBBLx3YMffWQ7xxTLCeXQobMBKZYSqbmJt5YFzjkEIU92OCbWeij3UReXtpv8kYwSRcj8Q9FGSBu0T8GeR+MRyJyJ5Y0BAB94vnYCXEbyUHa/6AkZwWTaAGJ/ybZUWKcKIn5AfLhCPkT9P/C25wSTEKl0MMuiBFl3iLOowv9yP705AUvhmyNnVsFJknJZ87YO/PYKMowjNMjyn2oEM6dbUsL5djdcogcQjkaoBQIBAQEATnkEEILBQTKpRCBmFCMCEoRJEoBpQQUEAO2pbQUelEKpSSICgG5rCQKW+V4featn5nY7jpTt8xsmT+e7Gbb7L7v7zff983O7OwK0eflKT8PGYCR7eOVgrG1+mIrfQVyr6EJU2r5uQ7JY7PTC/28TjCKHwnJt0y57qdsCC7G/Qm5aYU+XiMYhUeg6CumRLU5/zMyxCsEo+D2SEFOmilOZcRbsEtg1snQgrHe1kO+zDalVWy6Tjt/ADtg9Q0rGGKjkQemsIqG2cUYUjDEBiFFOWnmTtX/fPtUhAQZSLBNCI4zp2bPrMdIXClrm/6CS2ztFmRcLG6M9eOc1mZy0y9QXkYRB/f5MTyPN8dVX5ois5SZymx1F/xHu9DYrNOXRmJ6+VO11PQiSj+WS0k7D9KH8Qm0fPEqipk9n6ZNnklTX5+OzPDSTOce0Av3hN64R/SKnjXIBkuZqcxWT8F8TdL9zh3jsk9e3O6uYOWWffTrE7Rq+ToaOng42W0OCgpqSZIkkcViqUrhnlqiN/TIvaJn7l05U7llBqYyWzDWV/DdgZHx2RlF+W7kclOZyfm0ft1G6ts7ggICAhiC1WoV4ceqUBS98cbLj6F3ZgAWzMSdZJmpzFZfwfb2dHvcxD0o5pY7uYf3JfP01SqkFTeri1D9hXPvYMAswMStZJmpzBaMdRRsa/f4+ux5WSimxJXc/XuO0MD+g3jK0kGsIUWDBTM5ADauJMtMZbYyY10FX12w9DKKeVSe3IN7j1HkgCg0ZDHllpFsYTZgVK5kmanMVnfBV+JW3UQxj/+9Q3XiaA6NHT1e+5Qs/68kUYClBXEkCz9mNZKgf+q0KOqU+DGNUzYzAivBTimY2eohuJtyDf5xxZrfUUyZ6XnZonewhxzEjWiAxrfNO/WkRlGTqeHQ6dS0RyRZWwbjbxJZDSMXtQQFU9PukahxGmqdgpp7KXpQLZkZgVV5I5h+Wr7GCcZP/HPRo5ASIRhFcDHKqTkp8SB16tiZ1xotI1cKaU0NJqwg/40FVO2zW8ht8k24TLXnbqUW9i48Sqz6y0UtL1KdmATy3fK9XCPX6rfxHDWYuBI9hGoayWDErMBMTNUKwe+SQvAD+chWSVglfdPAfYfdDy8yHi92xSnLFYJRhBAsEj0rVstOldjqWS6LTSymajt/+Tu4n/gr1VzyBVlC2wt4uoQ3wlZtqdZbiXJNXJuoEzVz7fUnrUYvgaJO1TtdYCb4lStYXMEJyWvhoUYljFxblOLqwvIE8xZ4ZH8qde/aQ9volSSelv0xChjU53cEOHEf8G7ylI11Tz/BeO1GgyaRz44bytrEfa7db3MRNevSV0udzArMmB0YuhaMOEslz/7NbvPx5HdHNMOT5vCLuBCcjaLycLt+7UZNay/H0oLXXB69ApiIgLfrLtWZs5lHhh6jWOz81ZsRz7WgJpe1Nhz2JvcUoHEtBjtmmO1aMAcufoCTUE+uuxPwxA8R+q8RPHtGjDhyo0nwCyOjGZCrACqmxp1kDQzSSzAvI7XnfsK1uK61mJ57dZEmwQgzmzU9mnJP8Ah2L7g0MR6Re8/R3geCE8STuxN8KiWfRgwfVUHBMSoEJ+oveJ4KwWMXY7RrFzxi2CjKBEM3gpVTdSLi54m1tzryjRrB6Xg/NyAismoLnltpgpkdGKoTjO9D8cjOFqaCWkiKGsGpR05Tn/B+ZJFMwVoFgxmzA0M1ghE4cXjgC29KIBhRJfj4t1nUr0+EOYIrNoKZHRiqFow8WcEZOLE9aOBgU3DFBDM7MDSu4Kzj52jcmAmm4AoKBjswLDCsYP5YysJ5cSRJ5l60RsHMbOHcJZQLhsYVjNttH+2k1q1D+c171RS8zeOCwYqZgR0YGliw2NGKHMDrsDbBw2e5OjqE3GGotefvAORAvQRz6sz52P2RLOT5UbHck5bpGczEDpahBfM0vW51vLbDlZKFmoQPI59tV11B44P7DSa+Lc4P63UsGqNziTjJUG58Pr1GjfuN5v/VcJiSmYGd4QVzUg5nUlTkEPWjmM/StKGaS5PE9CePEHHLcv0/OIuD+P0ATtLxZINEzTqHk//7eVyTskaxjNRY8RVJ6s96MSOwYmZgZ3zB4pzwjoTdFObooOqsklXAeymCnl2bCnjFDEvEb/MFajj4DYam8+lCROITI36bCpU1cs3PrEujpt36qz5vDTbMCKzEuWDjC1Zm1fK1FBLSSsNULVHzsG44L7ySasbt5dFQd+YGavJylP5ylZKRpj0GUd0Z8VwjZh5ePpp36K76oztgwmzASMnMOwSLLfFUyllaFLuMgoOD1Y9kqwRIFv5IjLVlCMNSrLuGiLIm1Mi1QqymkQsmzAaMBDPvEawsODP5DDfSpk1b1Z+uBDgRPcV6uk7xaUpmASZgk69k5V2CReHiCNemDVspvFcf3noRbvYp+yw0BwyYBZgoGRlesKrrkg4lfUex0Yuoa5duFBgYyHuQpaOahVexSNwbeuRe0TP3DgZlrk/yYsEiQjI3hiaPye/7+NhreM/e5LA75GmLL+sICQnx5nAP6AU9haG3PvTamIncK3oWDJRMqopgTpnrZ0+nFlDyoZO0b9dhStyexG8XdmzZ5d1BD+iFe0o+fJJ7RK8uRq03CtYeIbwqRQhVGeMLNr9+oWxMwWZMwaZgU7Ap2BRsCjYFP7WCnQ4bBNtMwUYTDCeIJ0awrQZy1BRsOMFHkOqeuLLQH9ltCjaWYDjZXmKz+3rql0fnY2sxBRtGsO0xMtWTP3lqc+LKflOwMQTDRT5i8Zjge2E2X6fDvhhP/sAUrLNgh/0uXIypVgm/Tl0HT/4e4jQFP3nBTgRibyBTMKNWzk/MQm4NZCreOhXihR7qLViceis9g3ORzngoeZwi8Ro6Cl7zCIxLIPQaJO9yhv3V3vWERBHF4beYEYQXbwqlhwTN3NqibmWbZQrS0bp06FyXDlGmBEamQSb+SUW0IguhgxDeCoJ8U4TOWhAzm0QInrpEQZeNyul7PxkxoSidffNm9/fBh7KHN+/7Pt5v3r598yZ+CL5n982nGRz+gYDLcaHmTE31lff9d2fsF+kwgqWf5KafzHjj+A22u7PP67zaHQjRFtp8RG3jGqEEbYPu+OPJb9WVx+F1JQbWFhEG0JmusMrY2NAD2jReVVm1vFuxvCwQoi1qs6nxhDc6eH/tzhSd7BIaYFTA/sb6scFxb29i3+pjiYM+CpjaTuxJeCP99/yRnIcBS0f3CKatMA31K2eBZJH+k/f1y4d5W5pDlmYE3KGxdNHkZ7j3jlexo0LL1lv/4bC+m8P+xEsjnQ4RNmzLadEomkxuu9iuc281jeIL5y9rDdhWlG6LCffgs7kcMK4RSsBE6Z4zYAS7zRjFP3QGPHBrhF54oSlg2rjec2NAb8DS/WlL55QJJXo/SslnXcL9N7fUJY9qm2TVHkyuPihUE8nTAyZMskrAtD7hFDI93xOP7/a/JmWtNNfsilPF0Bsu3X/TYKkIGygjheCE7lUs/KWQk4fraJaLe3KQpDaTtXXe7Z7R366pUecEWChMQEq6p8HvYSxVPp2SNMLa267T0fhBEG1Rm2g7lKVK8hKeClOAUlIGA97pXat1sv3YS3jr0PBSeSrMAY3ia/wzX0CEl8I0YETttKWzwAFteIFjQXkpTMOrZ29jCLhVfX/joNbJZe9aZ547MWEiEHCxLd0p2+K3gK9nTkHewUNhLijkBDo6z6H9H5VnyjsRBaDUNKHDHzm4fyN5Bc9EVDD7Mh1Dp8+g0584wL9TeaS8Up6JKCE17Rag8ychYjHF9+Q/HUyzSB7BKxFFeOm5WEo6RyBmFmKWONQVLpEn8EZ5JKIOCNqOMtQLfknJvC7HnvIA7FWeiFwCRG0Gj4GTEPfVlvlTtpVW0gzt5AG8ELkKCN0KgQ0QPQQ6YCaVM2Gv1eFklEbSCs1Ku8gXzEqnAMJLwUYEfAnl6yEo8f9rGDOPzz9Ei+48+Ma2XAs6JqChBWxUGpVWke+Ys2jWXYSAi23LKYEx2yLGEoRbDBZhpG4SDAaDwWAwGAwGg8FgMBiMYPELwaxHDwCXqQ4AAAAASUVORK5CYII=;textShadow=0;fontColor=none;noLabel=1;shadow=1;" vertex="1" parent="1">
          <mxGeometry x="83" y="347" width="34" height="34" as="geometry" />
        </mxCell>
        <mxCell id="3C1mUvQcVeZkOKbagMCH-12" value="" style="shape=image;verticalLabelPosition=bottom;labelBackgroundColor=default;verticalAlign=top;aspect=fixed;imageAspect=0;image=data:image/png,iVBORw0KGgoAAAANSUhEUgAAAMgAAADICAYAAACtWK6eAAAQAElEQVR4AeydvXIcxxHHZygEKtuB5SordlkhEDoXGTgVS+/hdwDxDn4PFpU6IJU7JEO5HEtVlgPLhUDiqv+zO4e9va/96J7pnusrzO3H7fZ0/7t/O7N3wOFZ8Icr4AqcVMABOSmNv+AKhOCAeBW4AmcUcEDOiOMvuQIOiNeAK3BGAUFAzvTqL7kCRhRwQIwkyt2so4ADUkd379WIAg6IkUS5m3UUcEDq6O69GlHAJiBGxHU37SvggNjPoUcgqIADIiium7avgANiP4cegaACDoiguG7avgIOyCSHvukKjBVwQMZq+LorMFHAAZkI4puuwFgBB2Sshq+7AhMFHJCJIL7pCowVcEDGasiuh+713fOtTdhFNz9RwAGZCCKx2b25e9W9ue3Cs+7t1gY7fbt7JeGr29xXwAHZ14N9C3CE0N2zGyabvW1+y27xSQEH5EkL9jVMpwIVMrvhncHuvu9jt8NXmBVwQJgF3TP3LDwP/jCtgANiOn3kfIKQlv4jooADIiKrG21FAQeklUx6HCIKOCAisg5GY/flsCa3KNGHnPfqLTsgkinqgt+kB9sPB8R2/uhd5CALYbjuhwMilP+SH+L5ZyFCSSSzDgiJYP7nk+7efAxKA3BAxBJTsGjpXsdHEZlEOiACupacXu3c91FkJwXnigPCqSbZ6uEoOHpQn+nH4CiS/Fb+5ICwJ6gCHDkG/Dp9XvcliwLNAII5ePfN7dv+byVuu/5KzqLRbCPof/bBQgeW9uFA95SDdv5WpQlAEgy4etI046nuuvsEy+u7Ip8TpMLc6//Jk6Jr5EPSo0CnqZ+p7tR/CND+rok/6DIPSEoSJeRkPVAC+2NOHrHphXwFDakwNpliPJkKlK7kjAYPTPWanptOkg9v7ENiGpDLScp5lUlW6p8A1AXHEDMBm0ZQgSJNcZ+7KA0uVBxJdh5sXTELyPwkZYl6SHDFz3vWLmEjTalmFcnaXrjOG+JmAGVd3H3/XNGUtmMSkOVwZFlpSkBXfJyPlvfOWabioCJLYJANlaPGyUAoboJ57YiSYseUbXXcdiExB0hf2Ej4yWqY8QLOR9L6d7tgE0UwPhHbqY2hoCKzBcY4orw+xE0Fn+JGfKM3MlLMtJ2WOIZa+iYWmrJlC+uW6NfePYkpQJBQzGvXJejUWT0sKIL+CgtoRl/R0wQUR2JPBX8YO3TYNRyDduT0dbvsQWIGEBk41qXZz9qigC1IDgHZErvQuQ6HkLDVzNqBRD0gDke1Khbu2AYkqgFxOIRrtLp5/ZCoBcThqF69hRzQDYlKQByOQrWpphuChN5aVuPOyJGigIz6Pb/qX2VzXp8WX1X6B186AWF9773FamowJqU51wlIg/n3kGwqoBOQGN6FRh8///hTQHv81w/hf//898WG49BwDlqjslBY8YGe1P3oBOQXnWKtyR6KOoPw33982AHx+N33CRS8fq7hOLSpDUCDtsYnjefEl+9V/oGVSkDi1+9pBFkEiZqc52JHQWcg8j4uJ2EP0KDlPkzD8jG+4NKG245KQBBkf0WJKodd+DdtKFpAkRu2p8dIbaOvDAtAQZPqi99ufOgviPyWOSyqBQTBWYAExVkDCuhzrAEUNIws+kEhOJROrbK2qgGBkwkShTftKD4UIeAAJPBVW9MNin44kE/1gMDJoOimHTAAChRf8s3AE3wFzIBajbsfA91nBvUPE4CkOWq1UaTPYQYDcGC932vrGaDogIRGj/RGjH79TACSZKw4igAIy2Ak/YYnQKJuNBl807gwA0itUQRXXMChMXlbfAIoiG2LjbXnpvvKtScXPs8MIIV1SR/iAQwUUum+S/WH2BBjqf76fqKZt+7hry1ACk2zWppSIcnnGmLFlAvLc8dd62u2ACmQJRRKsatqgXjmdoGYEfvc41cfZ+TdqxyfA5KVoCXm5CgUWr3KH8QODSSDT/eSkh0w2zYFiKS4uHpiTs6srzlz0ABamHNcyGFTgAhpsLshl7JvzS5GEoekz5opQPB1mL3bvM8oCF6L9q1BEwlIpHIopbgpQMKzwP7PcFAIocEHR0iP3/3AYca0DVuAMEuNG1KJqySzm9XMQRtoxOqAwEWO1b+JMVuAMH7bCRL/+N33Ezl8c6oANAIo0/2rtxlzuNqHBSfaAoTxmy+Q+AU6XfWhmIayQUI5tHQfYgaQ/svkeOoUowePpeux8sh5P2JommUGEK7/CwI4Hn1qtZhsjCBoIYTF5x6cYGiaZQIQ1tHD4Tio17k7HrlGEUPTLBOAzE3gpeMwelw6xl8/rQBGEDYNlX7V6DR69YD0owf+VdjU9eXbj/pGD/zZKX79G197M23Yn9vyYIXOYNMQo8gb/f+zUD0gnPceQjWz1CygePHZ30OkhuUrWr470rA/t0idqIEFIwn5w/Cj91vdc3CqAUn/cjl7unHJduVb7wcgyFAAkkWWCKApLIvO5zz4keteBE7tTbWwQ1dTC0iaWtEwzCEX27x5nTOAASMFplDrLEzOGmDJo8rkVflNjCBoLD1RjjkvhCw+jYyoBKQXjOe+YxRrjdUHKmbAAUjY+yfb+D5bTL3YbV8yyDqKKIZEFSD4hLV7c9sFEuxSgpa8/ljn5hxgvFri55pja0GCEQRtjc9Hz6GcI/dp5nD0gDo7VQCSwPjm9m141r3llqHS9ApwiIwax/QZIGGbwh3ro9w+unFX9O5WVUD2wKAriEQSfv7PTxJmz9nEtKoYHNkRggR9FoXkkfNmPQeSloDktsNogpZ2bX1aeb4oIAmA13fPEeSu0UiBewwMp2nEEAIj68E6DchGTy8Bh/i06lT3AyTF7knkte3uQ8iwEDCoHRpddrWEdaqvU3pw7BcDBEEkANK0qQ8Uwab7C2EosjCFp1dV4cgxEyQAFKNJ3iW6lIdk5H6qm1EtETyosVRro8M4V0UA6R1GIJyu6rY1FKYWJ4uNInLTrCVSYpSR+VReBJA0UiyJT+jYgvcfxQpyjlQEK0YQtDmHN3KMzAVZCBAdmpca/qkgMa3REfTgBflU5Ia9lMZDWGcXuOc9e8CKF+cAssishJOLHBgOLpg4VaPHEH5eFBlFCmqd4yq2ZAekmOfe0RwFNMM7x//qxzQLyM8//r+IuDSVUTe9yoGTb4VGkDJa57hKLpsFpJCIFq7Q4pAUfDOkUFqfumkWkJaT9pS+WWvfzjrKDzqqQGVAjvrkO3kVEB9BeN3VZc0B2ZYPL75t+qk/2wFRnyJ3sKYCDkhN9b1v9Qo4IOpT5A7WVKBdQGqqqqtv9n8ZoSs8WW8ckG36evFt00/92Q7IthR9ue30Ns6++cNv2wjkSBTNAlIoaRZGkPsjefddMxVoF5DPfjNTgm2H/fi3oBYS8q3I74ndFNI6VHg0C4iklhPbfoWeCNLSZrOA3HxWbF6sdgShQi0Cb0GtKaTTP/Hr9+y/2cAOiISTpyU5/0qpxNFUhv37vM5HdvlV8qnQ9KrYhehy0AJHsAPS+xgt/Bp47yrP83MqSG0jSZnRQ807WDI1JwJIfPmerl4yDi+p50+/+OOSw7ceW6Qg5zhJsJL+c45s5Zj40NccfzwigMDN5PDH+CKESKPJqMXAPk8MJx435e5D4AFGka2FCTub2gBHMVg//XOhixDqBm1cT6gvaqnWNql2+mQxQNAl7kfg/F776sOL+PJDRAu7YIPYozAk91Sg1aZa1DcALQaHuLYAIgFA9YK6QaPZScyNbspRY2LFQ4ZFASH7Z392gRIwIcES2B+Fp1nw/y0VanFIhj6LwYFAxT6MzWAACIIAfdVqVQEZBw1YghAkofwDkOBqXqTnAY7i76SJTK8wYigAIydODSBwCJBEjCa4gmAHQ8M0AI3B1FITmG6JQ0JwoI/ycHzx+VI9zh9POUfupadM5504fFUVINm9SFeQQILl7a3LCtOs7LIYJAQG3hQAGDOnVdkljcv4kHKu0DWVgECnJBgTJDf0bhYa7FZogKSjgsaVnqV7sgUw0Irf6+QA2KZXlONIN93ZrralWkCSUL9Eeos4rW1+qjiKZN93oFCBL4aFzkkjBi07MlgNDOo7fMo4vUoXQhhV2lQD0s9HeSC5oVFESQ4wJdqDhYr+FTUAMG3Yjxt+QFF1xBhrxzZ6GHhTRjUgSEoafmkYxvrWxnnl2+rLcH6ChdaxBADThv1VRwvybe+HT8P4kHK7Z13fhnpAkmRMUy1c+W70jCQpNGtP0PDA54Z3mAAkTbXYRpFCvxrRYNHwjR4hWBg9Aj1MAEJ+htBFlu+YvaERBC3Z9KfZCgAOvtEjsr35MjuAlQfaAeRjYPslRwXvaAVrDz44gpnRI9DDDCCc06wbGkV+95c/Ufj+M0cBjB5zjpt1DNNUeVZfDAeZASTFyjTNgi1Awpp4GG2wQSPO0WPpVLm2pLYAYZxmQXgkHqBg3duhAtAGGh2+cj17bAEikBe/Hzktqsg0lPkid9p7nldMAZLuQ3ji3lnBVVKkEHY92FyR0kQih5IKmwJESgiHZF9ZwAFN9vde55YDMuQdBYEb0mHzahfQAFpICaDl/+iHEGaFaAoQaXFxQ4qr5yzlGjwIsUODBkNbHZIpQMKzIP6Le7h6olDClT0QM2K/srAvhmsLkIvh8ByAQvn9X28DljwW9VpBjEXh+KS716vGoWfGACkrLgoHc/JD2drYg9gQIyBpIyL+KMwA0r25W/xXeBxyYU6OQuKwpckGwEBsxX3qwnPpe0nOmNYBwumBAVsoJEy5WgAFowXgwLKa9IamWSYA6a84ZadXx4oHoFiFBEAADDSsH4uv2D5Do4gJQEq8ezW3OACJtdEEUKsAYyyykVFEPSD9vUf90WOcW6xrBwWjBKBIMJf6gmkIM7dhFKl0XznXRRynGhCtcEC43Mag4Eqd99daZjAAB9Zr+TGv3+6+z/G8o2scpQ6QLIKW+47sz6UlQEFLV+wvPi/6GQpAABC5YfuSv3peJ0he34l/ALw2XrWAhGcdvgJnbVxVzwMoKNYMC0YWzqKFLbTcB5bYRqsa+NrOKdf9BXGtAbnzVAKifdhdkg7AgoYiBjBYogEaNBT1pYbjcA7a2AbOW+KL6mOV3rSrBCSE7l51Mjc4h6JGAzRoKPpLDcfhHLQNXes+lW7aNTqoFBCNUrlP16iATkBkvvniGvNrJ2alOdcJCNNXjdqpDvdU67edqASk/7vlaObb97y8tyoQ1X6RtUpAIHf/3a3RIYEYTbeoFg7IrhYQOOeQQIWWm244oLxqQOCgDUjgqbdlCuiHA/GoBwROOiRQoaVmAw4obgIQOOqQQIUWmh04oLYZQOAsOyR47x3tY3wRhhZffohoaTv9D734EHAMHGippZgotkncB7GzxhxV35AfC9UUIAggpn8ZHB+wvrqhOKgw8B9WU/v6/Tu8tYyWbWIdfaX21YcXkcAJCZhg94G4EUOOnbRMcVL846DSPryW2ocYcE5qYcMjmoMDwZoDBE5HSlxYvnck9wAAArpJREFUkzAUSC6OSVGEGQ/0G3egxG2QzugvHcLxNI6btAMAS8xGnEPtaVRdcjaOjSbhgOcmAYHjSFpYBAklCSPBCjDC5IG+0cKi/kOlB2PcpN3yuKl/wFUp+q3dmgUEgc9PlkyS0H/EiIIrNBzS1OATRkuB4ozJZpwxgkazI0dOpWlAEMTFZAkVCfrODfcxQdNoQnDAp6VTqbDgkXQnbU+fYh8OxGYeEASRkoUCpcLAdmpYpwRKFknqZ3hKPqDPYbvagnwAHCX6h7YRIyi0zx1S/7hXiWmUyTvtLpsABPIjISiMSAlLjel+A7bnNvQ/91ip45b4wOVDJBhiRd254jhmpxlAjgVXZR+NWlX6TZ3GGfcF6UB/mqmAAzJTqLmHYdpR54PFaP6GeK7GJY9zQCTUrvAHX5GmORKhXLtNB0SgAsqPItGnVgJ5hEkHBCpItAqjiEQYK202c5oDIpTKNIoI2Z6a9enVVBG+bQeET8tDS/hM4HCv7zGkgANiKFlHXXUIj8rCtdMB4VLymJ0ufntsN+u+En2wOmzLmANiK1/ubSgrgQNSVm/vzZgCDohkwj6Gd8EfphVwQEynj5x3CEkEuR8HRE7b0H8WEgU/5Y4PfR+CQVy5aQdEuAD6D/GiACTRfzmRO3dH7DkgR0Th3gVI4vD3Evhjoq2tt/X+Fbefbu9QAQfkUBPRPZgSbW2iDrrxPQUckD05fMMV2FfAAdnXw7dcgT0FHJA9OXzDFdhXgAuQfau+5Qo0ooAD0kgiPQwZBRwQGV3daiMKOCCNJNLDkFHAAZHR1a02ooABQBpR2sMwqYADYjJt7nQpBRyQUkp7PyYVcEBMps2dLqWAA1JKae/HpALXDYjJlLnTJRVwQEqq7X2ZU8ABMZcyd7ikAg5ISbW9L3MKOCDmUuYOl1TAARFS2822ocCvAAAA//+VtnM4AAAABklEQVQDABYBZvqsHd45AAAAAElFTkSuQmCC;shadow=1;" vertex="1" parent="1">
          <mxGeometry x="103" y="367" width="20" height="20" as="geometry" />
        </mxCell>
        <mxCell id="3C1mUvQcVeZkOKbagMCH-13" value="" style="rounded=1;whiteSpace=wrap;html=1;fillColor=light-dark(#cec6d7, #392f3f);strokeColor=#9673a6;" vertex="1" parent="1">
          <mxGeometry x="150" y="324" width="110" height="86" as="geometry" />
        </mxCell>
        <mxCell id="3C1mUvQcVeZkOKbagMCH-15" value="&lt;p class=&quot;p1&quot;&gt;&lt;br&gt;&lt;/p&gt;" style="rounded=1;whiteSpace=wrap;html=1;fillColor=#e1d5e7;strokeColor=#9673a6;fontFamily=Comic Sans MS;" vertex="1" parent="1">
          <mxGeometry x="154.5" y="299" width="100" height="20" as="geometry" />
        </mxCell>
        <mxCell id="3C1mUvQcVeZkOKbagMCH-16" value="&lt;font style=&quot;font-size: 8px; color: light-dark(rgb(150, 115, 166), rgb(237, 237, 237));&quot;&gt;Uncertainty Quantification&lt;/font&gt;" style="text;html=1;align=center;verticalAlign=middle;whiteSpace=wrap;rounded=0;strokeWidth=2;" vertex="1" parent="1">
          <mxGeometry x="154.5" y="298" width="100" height="20" as="geometry" />
        </mxCell>
      </root>
    </mxGraphModel>
  </diagram>
</mxfile>
